<svg width="22" height="25" viewBox="0 0 22 25" fill="none" xmlns="http://www.w3.org/2000/svg">
<path d="M19.1391 10.6806C19.1422 11.8538 18.8681 13.0111 18.3391 14.0583C17.712 15.3132 16.7478 16.3687 15.5547 17.1066C14.3615 17.8445 12.9865 18.2356 11.5836 18.2361C10.4104 18.2392 9.25303 17.9651 8.20582 17.4361L3.13916 19.125L4.82805 14.0583C4.2991 13.0111 4.02499 11.8538 4.02805 10.6806C4.02859 9.27769 4.4197 7.90266 5.15757 6.70951C5.89545 5.51635 6.95094 4.55219 8.20582 3.92502C9.25303 3.39607 10.4104 3.12197 11.5836 3.12503H12.028C13.8808 3.22724 15.6307 4.00926 16.9428 5.32134C18.2549 6.63343 19.0369 8.38337 19.1391 10.2361V10.6806Z" fill="#C4C4C4"/>
</svg>
