<svg width="32" height="32" viewBox="0 0 32 32" fill="none" xmlns="http://www.w3.org/2000/svg">
<g clip-path="url(#clip0_1020_7)">
<rect width="32" height="32" rx="2.5" fill="white"/>
<rect width="32" height="32" fill="#081519"/>
<path d="M15.7155 25.8795C14.1515 25.8795 12.7255 25.707 11.4375 25.362C10.1495 25.017 9.057 24.534 8.16 23.913L9.5055 20.463C10.4025 21.015 11.3915 21.452 12.4725 21.774C13.5765 22.096 14.669 22.257 15.75 22.257C16.762 22.257 17.5095 22.096 17.9925 21.774C18.4755 21.452 18.717 21.015 18.717 20.463C18.717 20.003 18.556 19.6465 18.234 19.3935C17.935 19.1405 17.4635 18.9565 16.8195 18.8415L13.266 18.186C11.771 17.887 10.6325 17.335 9.8505 16.53C9.0685 15.725 8.6775 14.6785 8.6775 13.3905C8.6775 12.2635 8.9765 11.2745 9.5745 10.4235C10.1955 9.5495 11.081 8.871 12.231 8.388C13.381 7.905 14.7265 7.6635 16.2675 7.6635C17.5785 7.6635 18.8205 7.8245 19.9935 8.1465C21.1665 8.4685 22.167 8.963 22.995 9.63L21.5805 12.9765C20.8675 12.4475 20.0395 12.022 19.0965 11.7C18.1765 11.378 17.291 11.217 16.44 11.217C15.336 11.217 14.5425 11.401 14.0595 11.769C13.5765 12.114 13.335 12.5625 13.335 13.1145C13.335 13.5285 13.473 13.8735 13.749 14.1495C14.048 14.4255 14.4965 14.6325 15.0945 14.7705L18.6825 15.426C20.2235 15.702 21.3965 16.2195 22.2015 16.9785C23.0065 17.7375 23.409 18.784 23.409 20.118C23.409 21.337 23.087 22.372 22.443 23.223C21.799 24.074 20.8905 24.7295 19.7175 25.1895C18.5675 25.6495 17.2335 25.8795 15.7155 25.8795Z" fill="white"/>
</g>
<defs>
<clipPath id="clip0_1020_7">
<rect width="32" height="32" rx="2.5" fill="white"/>
</clipPath>
</defs>
</svg>
