<svg width="21" height="21" viewBox="0 0 21 21" fill="none" xmlns="http://www.w3.org/2000/svg">
<path d="M18.235 4.03375C17.7881 3.58663 17.2574 3.23194 16.6734 2.98995C16.0894 2.74796 15.4634 2.6234 14.8312 2.6234C14.1991 2.6234 13.5731 2.74796 12.989 2.98995C12.405 3.23194 11.8744 3.58663 11.4275 4.03375L10.5 4.96125L9.57248 4.03375C8.66975 3.13102 7.44539 2.62387 6.16873 2.62387C4.89208 2.62387 3.66771 3.13102 2.76498 4.03375C1.86225 4.93648 1.3551 6.16085 1.3551 7.4375C1.3551 8.71415 1.86225 9.93852 2.76498 10.8412L3.69248 11.7687L10.5 18.5762L17.3075 11.7687L18.235 10.8412C18.6821 10.3943 19.0368 9.86371 19.2788 9.27969C19.5208 8.69566 19.6453 8.06968 19.6453 7.4375C19.6453 6.80532 19.5208 6.17934 19.2788 5.59531C19.0368 5.01129 18.6821 4.48066 18.235 4.03375Z" fill="#C4C4C4"/>
</svg>
