<svg width="106" height="31" viewBox="0 0 106 31" fill="none" xmlns="http://www.w3.org/2000/svg">
<path d="M8.96 30.44C7.14667 30.44 5.49333 30.24 4 29.84C2.50667 29.44 1.24 28.88 0.2 28.16L1.76 24.16C2.8 24.8 3.94667 25.3067 5.2 25.68C6.48 26.0533 7.74667 26.24 9 26.24C10.1733 26.24 11.04 26.0533 11.6 25.68C12.16 25.3067 12.44 24.8 12.44 24.16C12.44 23.6267 12.2533 23.2133 11.88 22.92C11.5333 22.6267 10.9867 22.4133 10.24 22.28L6.12 21.52C4.38667 21.1733 3.06667 20.5333 2.16 19.6C1.25333 18.6667 0.8 17.4533 0.8 15.96C0.8 14.6533 1.14667 13.5067 1.84 12.52C2.56 11.5067 3.58667 10.72 4.92 10.16C6.25333 9.6 7.81333 9.32 9.6 9.32C11.12 9.32 12.56 9.50667 13.92 9.88C15.28 10.2533 16.44 10.8267 17.4 11.6L15.76 15.48C14.9333 14.8667 13.9733 14.3733 12.88 14C11.8133 13.6267 10.7867 13.44 9.8 13.44C8.52 13.44 7.6 13.6533 7.04 14.08C6.48 14.48 6.2 15 6.2 15.64C6.2 16.12 6.36 16.52 6.68 16.84C7.02667 17.16 7.54667 17.4 8.24 17.56L12.4 18.32C14.1867 18.64 15.5467 19.24 16.48 20.12C17.4133 21 17.88 22.2133 17.88 23.76C17.88 25.1733 17.5067 26.3733 16.76 27.36C16.0133 28.3467 14.96 29.1067 13.6 29.64C12.2667 30.1733 10.72 30.44 8.96 30.44ZM21.6363 30V0.559998H27.6763V13.52H27.0763C27.7163 12.16 28.6629 11.12 29.9163 10.4C31.1696 9.68 32.6096 9.32 34.2363 9.32C36.6096 9.32 38.3829 10.0133 39.5563 11.4C40.7296 12.76 41.3163 14.8533 41.3163 17.68V30H35.2763V17.96C35.2763 16.5467 35.0096 15.5333 34.4763 14.92C33.9696 14.3067 33.1696 14 32.0763 14C30.7429 14 29.6763 14.4133 28.8763 15.24C28.0763 16.0667 27.6763 17.1733 27.6763 18.56V30H21.6363ZM54.0475 30.44C52.2875 30.44 50.7408 30.0133 49.4075 29.16C48.0742 28.3067 47.0342 27.0933 46.2875 25.52C45.5408 23.9467 45.1675 22.0533 45.1675 19.84C45.1675 17.6533 45.5408 15.7733 46.2875 14.2C47.0342 12.6267 48.0742 11.4267 49.4075 10.6C50.7408 9.74667 52.2875 9.32 54.0475 9.32C55.6742 9.32 57.1275 9.72 58.4075 10.52C59.7142 11.2933 60.5675 12.3467 60.9675 13.68H60.5275L61.0075 9.72H66.8075C66.7275 10.6 66.6475 11.4933 66.5675 12.4C66.5142 13.28 66.4875 14.1467 66.4875 15V30H60.4875L60.4475 26.2H60.9275C60.5008 27.48 59.6475 28.5067 58.3675 29.28C57.0875 30.0533 55.6475 30.44 54.0475 30.44ZM55.8875 25.88C57.2742 25.88 58.3942 25.3867 59.2475 24.4C60.1008 23.4133 60.5275 21.8933 60.5275 19.84C60.5275 17.7867 60.1008 16.28 59.2475 15.32C58.3942 14.36 57.2742 13.88 55.8875 13.88C54.5008 13.88 53.3808 14.36 52.5275 15.32C51.6742 16.28 51.2475 17.7867 51.2475 19.84C51.2475 21.8933 51.6608 23.4133 52.4875 24.4C53.3408 25.3867 54.4742 25.88 55.8875 25.88ZM71.4009 30V15.08C71.4009 14.2 71.3743 13.3067 71.3209 12.4C71.2943 11.4933 71.2276 10.6 71.1209 9.72H76.9209L77.6009 15.64H76.6809C76.9476 14.2 77.3743 13.0133 77.9609 12.08C78.5743 11.1467 79.3209 10.4533 80.2009 10C81.1076 9.54667 82.1343 9.32 83.2809 9.32C83.7876 9.32 84.1876 9.34667 84.4809 9.4C84.7743 9.42667 85.0676 9.49333 85.3609 9.6L85.3209 14.92C84.7609 14.68 84.2809 14.5333 83.8809 14.48C83.5076 14.4 83.0276 14.36 82.4409 14.36C81.3209 14.36 80.3876 14.5733 79.6409 15C78.9209 15.4267 78.3743 16.0533 78.0009 16.88C77.6543 17.7067 77.4809 18.7067 77.4809 19.88V30H71.4009ZM97.7347 30.44C94.2147 30.44 91.468 29.4933 89.4947 27.6C87.5214 25.7067 86.5347 23.1333 86.5347 19.88C86.5347 17.7733 86.948 15.9333 87.7747 14.36C88.628 12.7867 89.8014 11.56 91.2947 10.68C92.8147 9.77333 94.588 9.32 96.6147 9.32C98.6147 9.32 100.281 9.74667 101.615 10.6C102.975 11.4533 103.988 12.6533 104.655 14.2C105.348 15.72 105.695 17.4933 105.695 19.52V20.92H91.4947V17.92H101.295L100.615 18.48C100.615 16.8 100.268 15.5333 99.5747 14.68C98.908 13.8 97.9347 13.36 96.6547 13.36C95.2414 13.36 94.148 13.88 93.3747 14.92C92.628 15.96 92.2547 17.4533 92.2547 19.4V20.04C92.2547 22.0133 92.7347 23.48 93.6947 24.44C94.6814 25.4 96.0947 25.88 97.9347 25.88C99.028 25.88 100.055 25.7467 101.015 25.48C102.001 25.1867 102.935 24.7333 103.815 24.12L105.495 28.12C104.481 28.8667 103.308 29.44 101.975 29.84C100.668 30.24 99.2547 30.44 97.7347 30.44Z" fill="black"/>
</svg>
