<svg width="64" height="19" viewBox="0 0 64 19" fill="none" xmlns="http://www.w3.org/2000/svg">
<path d="M5.92424 18.264C4.83624 18.264 3.84424 18.144 2.94824 17.904C2.05224 17.664 1.29224 17.328 0.668242 16.896L1.60424 14.496C2.22824 14.88 2.91624 15.184 3.66824 15.408C4.43624 15.632 5.19624 15.744 5.94824 15.744C6.65224 15.744 7.17224 15.632 7.50824 15.408C7.84424 15.184 8.01224 14.88 8.01224 14.496C8.01224 14.176 7.90024 13.928 7.67624 13.752C7.46824 13.576 7.14024 13.448 6.69224 13.368L4.22024 12.912C3.18024 12.704 2.38824 12.32 1.84424 11.76C1.30024 11.2 1.02824 10.472 1.02824 9.576C1.02824 8.792 1.23624 8.104 1.65224 7.512C2.08424 6.904 2.70024 6.432 3.50024 6.096C4.30024 5.76 5.23624 5.592 6.30824 5.592C7.22024 5.592 8.08424 5.704 8.90024 5.928C9.71624 6.152 10.4122 6.496 10.9882 6.96L10.0042 9.288C9.50824 8.92 8.93224 8.624 8.27624 8.4C7.63624 8.176 7.02024 8.064 6.42824 8.064C5.66024 8.064 5.10824 8.192 4.77224 8.448C4.43624 8.688 4.26824 9 4.26824 9.384C4.26824 9.672 4.36424 9.912 4.55624 10.104C4.76424 10.296 5.07624 10.44 5.49224 10.536L7.98824 10.992C9.06024 11.184 9.87624 11.544 10.4362 12.072C10.9962 12.6 11.2762 13.328 11.2762 14.256C11.2762 15.104 11.0522 15.824 10.6042 16.416C10.1562 17.008 9.52424 17.464 8.70824 17.784C7.90824 18.104 6.98024 18.264 5.92424 18.264ZM13.53 18V0.335999H17.154V8.112H16.794C17.178 7.296 17.746 6.672 18.498 6.24C19.25 5.808 20.114 5.592 21.09 5.592C22.514 5.592 23.578 6.008 24.282 6.84C24.986 7.656 25.338 8.912 25.338 10.608V18H21.714V10.776C21.714 9.928 21.554 9.32 21.234 8.952C20.93 8.584 20.45 8.4 19.794 8.4C18.994 8.4 18.354 8.648 17.874 9.144C17.394 9.64 17.154 10.304 17.154 11.136V18H13.53ZM32.9767 18.264C31.9207 18.264 30.9927 18.008 30.1927 17.496C29.3927 16.984 28.7687 16.256 28.3207 15.312C27.8727 14.368 27.6487 13.232 27.6487 11.904C27.6487 10.592 27.8727 9.464 28.3207 8.52C28.7687 7.576 29.3927 6.856 30.1927 6.36C30.9927 5.848 31.9207 5.592 32.9767 5.592C33.9527 5.592 34.8247 5.832 35.5927 6.312C36.3767 6.776 36.8887 7.408 37.1287 8.208H36.8647L37.1527 5.832H40.6327C40.5847 6.36 40.5367 6.896 40.4887 7.44C40.4567 7.968 40.4407 8.488 40.4407 9V18H36.8407L36.8167 15.72H37.1047C36.8487 16.488 36.3367 17.104 35.5687 17.568C34.8007 18.032 33.9367 18.264 32.9767 18.264ZM34.0807 15.528C34.9127 15.528 35.5847 15.232 36.0967 14.64C36.6087 14.048 36.8647 13.136 36.8647 11.904C36.8647 10.672 36.6087 9.768 36.0967 9.192C35.5847 8.616 34.9127 8.328 34.0807 8.328C33.2487 8.328 32.5767 8.616 32.0647 9.192C31.5527 9.768 31.2967 10.672 31.2967 11.904C31.2967 13.136 31.5447 14.048 32.0407 14.64C32.5527 15.232 33.2327 15.528 34.0807 15.528ZM43.3888 18V9.048C43.3888 8.52 43.3728 7.984 43.3408 7.44C43.3248 6.896 43.2848 6.36 43.2208 5.832H46.7008L47.1088 9.384H46.5568C46.7168 8.52 46.9728 7.808 47.3248 7.248C47.6928 6.688 48.1408 6.272 48.6688 6C49.2128 5.728 49.8288 5.592 50.5168 5.592C50.8208 5.592 51.0608 5.608 51.2368 5.64C51.4128 5.656 51.5888 5.696 51.7648 5.76L51.7408 8.952C51.4048 8.808 51.1168 8.72 50.8768 8.688C50.6528 8.64 50.3648 8.616 50.0128 8.616C49.3408 8.616 48.7808 8.744 48.3328 9C47.9008 9.256 47.5728 9.632 47.3488 10.128C47.1408 10.624 47.0368 11.224 47.0368 11.928V18H43.3888ZM59.1891 18.264C57.0771 18.264 55.4291 17.696 54.2451 16.56C53.0611 15.424 52.4691 13.88 52.4691 11.928C52.4691 10.664 52.7171 9.56 53.2131 8.616C53.7251 7.672 54.4291 6.936 55.3251 6.408C56.2371 5.864 57.3011 5.592 58.5171 5.592C59.7171 5.592 60.7171 5.848 61.5171 6.36C62.3331 6.872 62.9411 7.592 63.3411 8.52C63.7571 9.432 63.9651 10.496 63.9651 11.712V12.552H55.4451V10.752H61.3251L60.9171 11.088C60.9171 10.08 60.7091 9.32 60.2931 8.808C59.8931 8.28 59.3091 8.016 58.5411 8.016C57.6931 8.016 57.0371 8.328 56.5731 8.952C56.1251 9.576 55.9011 10.472 55.9011 11.64V12.024C55.9011 13.208 56.1891 14.088 56.7651 14.664C57.3571 15.24 58.2051 15.528 59.3091 15.528C59.9651 15.528 60.5811 15.448 61.1571 15.288C61.7491 15.112 62.3091 14.84 62.8371 14.472L63.8451 16.872C63.2371 17.32 62.5331 17.664 61.7331 17.904C60.9491 18.144 60.1011 18.264 59.1891 18.264Z" fill="white"/>
</svg>
