<svg width="65" height="19" viewBox="0 0 65 19" fill="none" xmlns="http://www.w3.org/2000/svg">
<path d="M5.976 18.264C4.888 18.264 3.896 18.144 3 17.904C2.104 17.664 1.344 17.328 0.72 16.896L1.656 14.496C2.28 14.88 2.968 15.184 3.72 15.408C4.488 15.632 5.248 15.744 6 15.744C6.704 15.744 7.224 15.632 7.56 15.408C7.896 15.184 8.064 14.88 8.064 14.496C8.064 14.176 7.952 13.928 7.728 13.752C7.52 13.576 7.192 13.448 6.744 13.368L4.272 12.912C3.232 12.704 2.44 12.32 1.896 11.76C1.352 11.2 1.08 10.472 1.08 9.576C1.08 8.792 1.288 8.104 1.704 7.512C2.136 6.904 2.752 6.432 3.552 6.096C4.352 5.76 5.288 5.592 6.36 5.592C7.272 5.592 8.136 5.704 8.952 5.928C9.768 6.152 10.464 6.496 11.04 6.96L10.056 9.288C9.56 8.92 8.984 8.624 8.328 8.4C7.688 8.176 7.072 8.064 6.48 8.064C5.712 8.064 5.16 8.192 4.824 8.448C4.488 8.688 4.32 9 4.32 9.384C4.32 9.672 4.416 9.912 4.608 10.104C4.816 10.296 5.128 10.44 5.544 10.536L8.04 10.992C9.112 11.184 9.928 11.544 10.488 12.072C11.048 12.6 11.328 13.328 11.328 14.256C11.328 15.104 11.104 15.824 10.656 16.416C10.208 17.008 9.576 17.464 8.76 17.784C7.96 18.104 7.032 18.264 5.976 18.264ZM13.5818 18V0.335999H17.2058V8.112H16.8458C17.2298 7.296 17.7978 6.672 18.5498 6.24C19.3018 5.808 20.1658 5.592 21.1418 5.592C22.5658 5.592 23.6298 6.008 24.3338 6.84C25.0378 7.656 25.3898 8.912 25.3898 10.608V18H21.7658V10.776C21.7658 9.928 21.6058 9.32 21.2858 8.952C20.9818 8.584 20.5018 8.4 19.8458 8.4C19.0458 8.4 18.4058 8.648 17.9258 9.144C17.4458 9.64 17.2058 10.304 17.2058 11.136V18H13.5818ZM33.0285 18.264C31.9725 18.264 31.0445 18.008 30.2445 17.496C29.4445 16.984 28.8205 16.256 28.3725 15.312C27.9245 14.368 27.7005 13.232 27.7005 11.904C27.7005 10.592 27.9245 9.464 28.3725 8.52C28.8205 7.576 29.4445 6.856 30.2445 6.36C31.0445 5.848 31.9725 5.592 33.0285 5.592C34.0045 5.592 34.8765 5.832 35.6445 6.312C36.4285 6.776 36.9405 7.408 37.1805 8.208H36.9165L37.2045 5.832H40.6845C40.6365 6.36 40.5885 6.896 40.5405 7.44C40.5085 7.968 40.4925 8.488 40.4925 9V18H36.8925L36.8685 15.72H37.1565C36.9005 16.488 36.3885 17.104 35.6205 17.568C34.8525 18.032 33.9885 18.264 33.0285 18.264ZM34.1325 15.528C34.9645 15.528 35.6365 15.232 36.1485 14.64C36.6605 14.048 36.9165 13.136 36.9165 11.904C36.9165 10.672 36.6605 9.768 36.1485 9.192C35.6365 8.616 34.9645 8.328 34.1325 8.328C33.3005 8.328 32.6285 8.616 32.1165 9.192C31.6045 9.768 31.3485 10.672 31.3485 11.904C31.3485 13.136 31.5965 14.048 32.0925 14.64C32.6045 15.232 33.2845 15.528 34.1325 15.528ZM43.4406 18V9.048C43.4406 8.52 43.4246 7.984 43.3926 7.44C43.3766 6.896 43.3366 6.36 43.2726 5.832H46.7526L47.1606 9.384H46.6086C46.7686 8.52 47.0246 7.808 47.3766 7.248C47.7446 6.688 48.1926 6.272 48.7206 6C49.2646 5.728 49.8806 5.592 50.5686 5.592C50.8726 5.592 51.1126 5.608 51.2886 5.64C51.4646 5.656 51.6406 5.696 51.8166 5.76L51.7926 8.952C51.4566 8.808 51.1686 8.72 50.9286 8.688C50.7046 8.64 50.4166 8.616 50.0646 8.616C49.3926 8.616 48.8326 8.744 48.3846 9C47.9526 9.256 47.6246 9.632 47.4006 10.128C47.1926 10.624 47.0886 11.224 47.0886 11.928V18H43.4406ZM59.2408 18.264C57.1288 18.264 55.4808 17.696 54.2968 16.56C53.1128 15.424 52.5208 13.88 52.5208 11.928C52.5208 10.664 52.7688 9.56 53.2648 8.616C53.7768 7.672 54.4808 6.936 55.3768 6.408C56.2888 5.864 57.3528 5.592 58.5688 5.592C59.7688 5.592 60.7688 5.848 61.5688 6.36C62.3848 6.872 62.9928 7.592 63.3928 8.52C63.8088 9.432 64.0168 10.496 64.0168 11.712V12.552H55.4968V10.752H61.3768L60.9688 11.088C60.9688 10.08 60.7608 9.32 60.3448 8.808C59.9448 8.28 59.3608 8.016 58.5928 8.016C57.7448 8.016 57.0888 8.328 56.6248 8.952C56.1768 9.576 55.9528 10.472 55.9528 11.64V12.024C55.9528 13.208 56.2408 14.088 56.8168 14.664C57.4088 15.24 58.2568 15.528 59.3608 15.528C60.0168 15.528 60.6328 15.448 61.2088 15.288C61.8008 15.112 62.3608 14.84 62.8888 14.472L63.8968 16.872C63.2888 17.32 62.5848 17.664 61.7848 17.904C61.0008 18.144 60.1528 18.264 59.2408 18.264Z" fill="black"/>
</svg>
